<svg width="1568" height="637" viewBox="0 0 1568 637" fill="none" xmlns="http://www.w3.org/2000/svg">
<rect width="1568" height="637" fill="white"/>
<path d="M701.045 254V195.818H736.159V202.068H708.091V221.727H734.341V227.977H708.091V247.75H736.614V254H701.045ZM800.994 195.818V254H794.176L762.472 208.318H761.903V254H754.858V195.818H761.676L793.494 241.614H794.062V195.818H800.994ZM867.911 214H860.865C860.448 211.973 859.719 210.193 858.678 208.659C857.655 207.125 856.405 205.837 854.928 204.795C853.469 203.735 851.85 202.939 850.07 202.409C848.289 201.879 846.433 201.614 844.501 201.614C840.979 201.614 837.787 202.504 834.928 204.284C832.087 206.064 829.823 208.688 828.138 212.153C826.471 215.619 825.638 219.871 825.638 224.909C825.638 229.947 826.471 234.199 828.138 237.665C829.823 241.131 832.087 243.754 834.928 245.534C837.787 247.314 840.979 248.205 844.501 248.205C846.433 248.205 848.289 247.939 850.07 247.409C851.85 246.879 853.469 246.093 854.928 245.051C856.405 243.991 857.655 242.693 858.678 241.159C859.719 239.606 860.448 237.826 860.865 235.818H867.911C867.38 238.792 866.414 241.453 865.013 243.801C863.611 246.15 861.869 248.148 859.786 249.795C857.702 251.424 855.363 252.665 852.768 253.517C850.193 254.369 847.437 254.795 844.501 254.795C839.539 254.795 835.126 253.583 831.263 251.159C827.399 248.735 824.359 245.288 822.143 240.818C819.928 236.348 818.82 231.045 818.82 224.909C818.82 218.773 819.928 213.47 822.143 209C824.359 204.53 827.399 201.083 831.263 198.659C835.126 196.235 839.539 195.023 844.501 195.023C847.437 195.023 850.193 195.449 852.768 196.301C855.363 197.153 857.702 198.403 859.786 200.051C861.869 201.68 863.611 203.669 865.013 206.017C866.414 208.347 867.38 211.008 867.911 214ZM934.386 224.909C934.386 231.045 933.278 236.348 931.062 240.818C928.847 245.288 925.807 248.735 921.943 251.159C918.08 253.583 913.667 254.795 908.705 254.795C903.742 254.795 899.33 253.583 895.466 251.159C891.602 248.735 888.563 245.288 886.347 240.818C884.131 236.348 883.023 231.045 883.023 224.909C883.023 218.773 884.131 213.47 886.347 209C888.563 204.53 891.602 201.083 895.466 198.659C899.33 196.235 903.742 195.023 908.705 195.023C913.667 195.023 918.08 196.235 921.943 198.659C925.807 201.083 928.847 204.53 931.062 209C933.278 213.47 934.386 218.773 934.386 224.909ZM927.568 224.909C927.568 219.871 926.725 215.619 925.04 212.153C923.373 208.688 921.11 206.064 918.25 204.284C915.409 202.504 912.227 201.614 908.705 201.614C905.182 201.614 901.991 202.504 899.131 204.284C896.29 206.064 894.027 208.688 892.341 212.153C890.674 215.619 889.841 219.871 889.841 224.909C889.841 229.947 890.674 234.199 892.341 237.665C894.027 241.131 896.29 243.754 899.131 245.534C901.991 247.314 905.182 248.205 908.705 248.205C912.227 248.205 915.409 247.314 918.25 245.534C921.11 243.754 923.373 241.131 925.04 237.665C926.725 234.199 927.568 229.947 927.568 224.909ZM952.233 254V195.818H971.892C976.438 195.818 980.169 196.595 983.085 198.148C986.002 199.682 988.161 201.794 989.562 204.483C990.964 207.172 991.665 210.231 991.665 213.659C991.665 217.087 990.964 220.127 989.562 222.778C988.161 225.43 986.011 227.513 983.114 229.028C980.216 230.525 976.513 231.273 972.006 231.273H956.097V224.909H971.778C974.884 224.909 977.384 224.455 979.278 223.545C981.191 222.636 982.574 221.348 983.426 219.682C984.297 217.996 984.733 215.989 984.733 213.659C984.733 211.33 984.297 209.294 983.426 207.551C982.555 205.809 981.163 204.464 979.25 203.517C977.337 202.551 974.809 202.068 971.665 202.068H959.278V254H952.233ZM979.619 227.864L993.938 254H985.756L971.665 227.864H979.619ZM1027.36 254H1009.4V195.818H1028.15C1033.8 195.818 1038.63 196.983 1042.64 199.312C1046.66 201.623 1049.74 204.947 1051.88 209.284C1054.02 213.602 1055.09 218.773 1055.09 224.795C1055.09 230.856 1054.01 236.074 1051.85 240.449C1049.69 244.805 1046.54 248.157 1042.42 250.506C1038.29 252.835 1033.27 254 1027.36 254ZM1016.45 247.75H1026.9C1031.72 247.75 1035.7 246.822 1038.87 244.966C1042.03 243.11 1044.39 240.468 1045.94 237.04C1047.49 233.612 1048.27 229.53 1048.27 224.795C1048.27 220.098 1047.5 216.055 1045.97 212.665C1044.43 209.256 1042.14 206.642 1039.09 204.824C1036.04 202.987 1032.25 202.068 1027.7 202.068H1016.45V247.75ZM727.026 444H698.901L750.108 298.545H782.636L833.915 444H805.79L766.94 328.375H765.804L727.026 444ZM727.949 386.969H804.653V408.134H727.949V386.969ZM884.202 446.131C873.312 446.131 863.96 443.74 856.148 438.957C848.383 434.175 842.393 427.57 838.179 419.142C834.012 410.667 831.929 400.913 831.929 389.881C831.929 378.801 834.06 369.024 838.321 360.548C842.582 352.026 848.596 345.397 856.361 340.662C864.173 335.88 873.406 333.489 884.06 333.489C892.914 333.489 900.75 335.122 907.568 338.389C914.434 341.609 919.902 346.178 923.974 352.097C928.046 357.968 930.366 364.833 930.935 372.693H906.361C905.366 367.437 902.999 363.058 899.259 359.554C895.565 356.003 890.617 354.227 884.415 354.227C879.159 354.227 874.543 355.648 870.565 358.489C866.588 361.282 863.487 365.307 861.261 370.562C859.083 375.818 857.994 382.116 857.994 389.455C857.994 396.888 859.083 403.28 861.261 408.631C863.439 413.934 866.493 418.029 870.423 420.918C874.401 423.759 879.064 425.179 884.415 425.179C888.203 425.179 891.588 424.469 894.571 423.048C897.601 421.58 900.134 419.473 902.17 416.727C904.206 413.981 905.603 410.643 906.361 406.713H930.935C930.319 414.431 928.046 421.273 924.116 427.239C920.187 433.157 914.836 437.797 908.065 441.159C901.295 444.473 893.34 446.131 884.202 446.131ZM994.521 334.909V354.795H931.808V334.909H994.521ZM947.29 308.773H973.001V411.188C973.001 414.644 973.522 417.295 974.563 419.142C975.652 420.941 977.073 422.172 978.825 422.835C980.576 423.498 982.518 423.83 984.648 423.83C986.258 423.83 987.726 423.711 989.052 423.474C990.425 423.238 991.467 423.025 992.177 422.835L996.509 442.935C995.136 443.408 993.171 443.929 990.614 444.497C988.105 445.065 985.027 445.397 981.381 445.491C974.942 445.681 969.142 444.71 963.981 442.58C958.82 440.402 954.724 437.04 951.694 432.494C948.711 427.949 947.243 422.267 947.29 415.449V308.773ZM1004.02 444V334.909H1029.73V444H1004.02ZM1016.95 319.426C1012.88 319.426 1009.37 318.077 1006.44 315.378C1003.5 312.632 1002.03 309.341 1002.03 305.506C1002.03 301.623 1003.5 298.332 1006.44 295.634C1009.37 292.887 1012.88 291.514 1016.95 291.514C1021.07 291.514 1024.57 292.887 1027.46 295.634C1030.4 298.332 1031.86 301.623 1031.86 305.506C1031.86 309.341 1030.4 312.632 1027.46 315.378C1024.57 318.077 1021.07 319.426 1016.95 319.426ZM1141.61 334.909L1102.76 444H1074.36L1035.51 334.909H1062.92L1087.99 415.946H1089.13L1114.27 334.909H1141.61ZM1191.99 446.131C1181.05 446.131 1171.61 443.858 1163.65 439.312C1155.74 434.72 1149.66 428.233 1145.4 419.852C1141.14 411.424 1139.01 401.505 1139.01 390.094C1139.01 378.872 1141.14 369.024 1145.4 360.548C1149.71 352.026 1155.72 345.397 1163.44 340.662C1171.16 335.88 1180.22 333.489 1190.64 333.489C1197.36 333.489 1203.71 334.578 1209.67 336.756C1215.69 338.886 1220.99 342.201 1225.58 346.699C1230.22 351.197 1233.87 356.926 1236.52 363.886C1239.17 370.799 1240.5 379.038 1240.5 388.602V396.486H1151.08V379.156H1215.85C1215.81 374.232 1214.74 369.852 1212.66 366.017C1210.57 362.134 1207.66 359.08 1203.92 356.855C1200.23 354.63 1195.92 353.517 1191 353.517C1185.74 353.517 1181.12 354.795 1177.15 357.352C1173.17 359.862 1170.07 363.176 1167.84 367.295C1165.66 371.367 1164.55 375.842 1164.5 380.719V395.847C1164.5 402.191 1165.66 407.636 1167.98 412.182C1170.3 416.68 1173.55 420.136 1177.71 422.551C1181.88 424.919 1186.76 426.102 1192.35 426.102C1196.09 426.102 1199.47 425.581 1202.5 424.54C1205.53 423.451 1208.16 421.865 1210.38 419.781C1212.61 417.698 1214.29 415.117 1215.43 412.04L1239.43 414.739C1237.92 421.083 1235.03 426.623 1230.77 431.358C1226.55 436.045 1221.16 439.691 1214.58 442.295C1207.99 444.852 1200.47 446.131 1191.99 446.131Z" fill="#151515"/>
<g filter="url(#filter0_d_10_496)">
<path d="M614.667 157H348.333C331.028 157 317 170.995 317 188.258V448.742C317 466.005 331.028 480 348.333 480H614.667C631.972 480 646 466.005 646 448.742V188.258C646 170.995 631.972 157 614.667 157Z" fill="#F6FFED"/>
<path fill-rule="evenodd" clip-rule="evenodd" d="M505.492 242.935C509.056 240.376 512.7 238.047 516.403 235.981C520.107 233.915 523.75 232.177 527.315 230.76C528.412 230.323 529.177 231.056 529.023 232.395C528.869 233.735 527.855 235.176 526.758 235.612C523.377 236.957 519.92 238.605 516.403 240.568C512.886 242.53 509.429 244.739 506.049 247.166C504.951 247.955 503.937 247.646 503.783 246.478C503.63 245.309 504.394 243.723 505.492 242.935ZM541.65 229.073C542.046 227.669 543.207 226.43 544.241 226.307C551.142 225.482 557.552 226.022 563.3 227.834C564.18 228.111 564.349 229.456 563.676 230.838C563.004 232.22 561.745 233.115 560.864 232.838C555.418 231.122 549.344 230.609 542.804 231.391C541.77 231.515 541.253 230.477 541.65 229.073ZM491.157 257.244C491.554 258.205 491.037 259.82 490.002 260.851C483.462 267.367 477.388 274.657 471.942 282.45C471.061 283.71 469.802 284.22 469.13 283.589C468.457 282.957 468.626 281.424 469.506 280.164C475.254 271.939 481.664 264.246 488.565 257.37C489.6 256.34 490.76 256.283 491.157 257.244ZM459.746 299.172C460.603 299.497 460.728 300.873 460.024 302.244C455.65 310.777 452.054 319.596 449.404 328.422C448.982 329.829 447.809 331.041 446.785 331.13C445.76 331.218 445.272 330.15 445.694 328.744C448.499 319.403 452.301 310.079 456.923 301.065C457.626 299.694 458.89 298.846 459.746 299.172ZM573.06 235.951C573.916 234.669 575.18 234.106 575.884 234.692C580.505 238.55 584.307 243.632 587.112 249.843C587.534 250.778 587.046 252.391 586.022 253.445C584.997 254.5 583.824 254.596 583.402 253.661C580.751 247.792 577.156 242.984 572.782 239.333C572.079 238.747 572.203 237.232 573.06 235.951ZM443.302 347.435C444.398 347.012 445.152 347.759 444.987 349.104C444.48 353.239 444.217 357.327 444.217 361.339C444.217 365.35 444.48 369.145 444.987 372.713C445.152 373.874 444.398 375.463 443.302 376.263C442.206 377.063 441.184 376.771 441.019 375.611C440.482 371.834 440.204 367.818 440.204 363.577C440.204 359.336 440.482 355.011 441.019 350.634C441.184 349.29 442.206 347.857 443.302 347.435ZM589.504 265.864C590.6 265.064 591.622 265.356 591.787 266.516C592.324 270.294 592.602 274.308 592.602 278.55C592.602 282.791 592.324 287.116 591.787 291.493C591.622 292.837 590.6 294.27 589.504 294.692C588.408 295.115 587.654 294.368 587.819 293.024C588.326 288.888 588.589 284.8 588.589 280.788C588.589 276.777 588.326 272.982 587.819 269.413C587.654 268.253 588.408 266.664 589.504 265.864ZM446.785 388.682C447.809 387.628 448.982 387.531 449.404 388.466C452.054 394.335 455.65 399.143 460.024 402.794C460.728 403.381 460.603 404.895 459.746 406.176C458.89 407.458 457.626 408.021 456.923 407.434C452.301 403.577 448.499 398.495 445.694 392.285C445.272 391.349 445.76 389.736 446.785 388.682ZM586.022 310.997C587.046 310.908 587.534 311.976 587.112 313.383C584.307 322.723 580.505 332.049 575.884 341.062C575.18 342.433 573.916 343.281 573.06 342.955C572.203 342.63 572.079 341.254 572.782 339.883C577.156 331.351 580.751 322.531 583.402 313.704C583.824 312.298 584.997 311.086 586.022 310.997ZM469.13 411.289C469.802 409.907 471.061 409.012 471.942 409.289C477.388 411.005 483.462 411.518 490.002 410.736C491.037 410.612 491.554 411.65 491.157 413.054C490.76 414.458 489.6 415.696 488.565 415.82C481.664 416.645 475.254 416.104 469.506 414.293C468.626 414.016 468.457 412.671 469.13 411.289ZM563.676 358.538C564.349 359.169 564.18 360.703 563.3 361.963C557.552 370.188 551.142 377.881 544.241 384.757C543.207 385.787 542.046 385.844 541.65 384.883C541.253 383.922 541.77 382.307 542.804 381.276C549.344 374.76 555.418 367.47 560.864 359.677C561.745 358.417 563.004 357.907 563.676 358.538ZM503.783 409.731C503.937 408.391 504.951 406.951 506.049 406.514C509.429 405.17 512.886 403.521 516.403 401.559C519.92 399.597 523.377 397.388 526.758 394.96C527.855 394.172 528.869 394.481 529.023 395.65C529.177 396.818 528.412 398.404 527.315 399.192C523.75 401.752 520.107 404.079 516.403 406.146C512.7 408.212 509.056 409.95 505.492 411.368C504.394 411.804 503.63 411.071 503.783 409.731Z" fill="#389E0D" stroke="#389E0D" stroke-width="1.5"/>
<path d="M591.202 274.07C585.128 275.257 579.24 271.306 578.05 265.247C576.861 259.187 580.821 253.313 586.895 252.127C592.969 250.941 598.857 254.891 600.046 260.951C601.236 267.01 597.276 272.884 591.202 274.07Z" fill="white"/>
<path fill-rule="evenodd" clip-rule="evenodd" d="M452.61 399.266C491.461 377.59 522.79 324.994 522.79 281.908C522.79 238.821 491.461 221.185 452.61 242.861C413.759 264.537 382.43 317.132 382.43 360.219C382.43 403.306 413.759 420.942 452.61 399.266ZM452.61 403.852C493.585 380.991 526.802 325.392 526.802 279.669C526.802 233.946 493.585 215.413 452.61 238.275C411.634 261.136 378.417 316.735 378.417 362.458C378.417 408.181 411.634 426.714 452.61 403.852Z" fill="#389E0D" stroke="#389E0D" stroke-width="1.5"/>
<path d="M426.041 258.602C431.07 262.201 432.223 269.186 428.615 274.203C425.008 279.22 418.006 280.37 412.977 276.771C407.948 273.172 406.795 266.188 410.403 261.17C414.01 256.153 421.012 255.003 426.041 258.602Z" fill="#389E0D"/>
<path d="M542.837 382.323C547.867 385.922 549.019 392.907 545.411 397.924C541.804 402.941 534.802 404.091 529.773 400.492C524.744 396.893 523.591 389.908 527.199 384.891C530.806 379.874 537.808 378.724 542.837 382.323Z" fill="#389E0D"/>
<path d="M599.461 262.726C599.461 267.888 595.266 272.072 590.091 272.072C584.917 272.072 580.722 267.888 580.722 262.726C580.722 257.564 584.917 253.379 590.091 253.379C595.266 253.379 599.461 257.564 599.461 262.726Z" fill="white" stroke="#389E0D" stroke-width="5"/>
<path d="M390.572 372.129C390.572 377.291 386.377 381.476 381.203 381.476C376.028 381.476 371.833 377.291 371.833 372.129C371.833 366.967 376.028 362.782 381.203 362.782C386.377 362.782 390.572 366.967 390.572 372.129Z" fill="white" stroke="#389E0D" stroke-width="5"/>
<path d="M614.667 159.605H348.333C332.47 159.605 319.611 172.433 319.611 188.258V448.742C319.611 464.567 332.47 477.395 348.333 477.395H614.667C630.529 477.395 643.389 464.567 643.389 448.742V188.258C643.389 172.433 630.529 159.605 614.667 159.605Z" stroke="url(#paint0_linear_10_496)" stroke-opacity="0.4"/>
</g>
<defs>
<filter id="filter0_d_10_496" x="307" y="151" width="349" height="343" filterUnits="userSpaceOnUse" color-interpolation-filters="sRGB">
<feFlood flood-opacity="0" result="BackgroundImageFix"/>
<feColorMatrix in="SourceAlpha" type="matrix" values="0 0 0 0 0 0 0 0 0 0 0 0 0 0 0 0 0 0 127 0" result="hardAlpha"/>
<feOffset dy="4"/>
<feGaussianBlur stdDeviation="5"/>
<feComposite in2="hardAlpha" operator="out"/>
<feColorMatrix type="matrix" values="0 0 0 0 0.3875 0 0 0 0 0.384271 0 0 0 0 0.384271 0 0 0 0.2 0"/>
<feBlend mode="normal" in2="BackgroundImageFix" result="effect1_dropShadow_10_496"/>
<feBlend mode="normal" in="SourceGraphic" in2="effect1_dropShadow_10_496" result="shape"/>
</filter>
<linearGradient id="paint0_linear_10_496" x1="558.046" y1="42.0584" x2="349.184" y2="118.507" gradientUnits="userSpaceOnUse">
<stop stop-color="white" stop-opacity="0.54"/>
<stop offset="0.53125" stop-color="#FBFBFB" stop-opacity="0.68"/>
<stop offset="1" stop-color="#EDEDED" stop-opacity="0.42"/>
</linearGradient>
</defs>
</svg>
