<svg width="1568" height="637" viewBox="0 0 1568 637" fill="none" xmlns="http://www.w3.org/2000/svg">
<rect width="1568" height="637" fill="white"/>
<path d="M574.045 254V195.818H609.159V202.068H581.091V221.727H607.341V227.977H581.091V247.75H609.614V254H574.045ZM673.994 195.818V254H667.176L635.472 208.318H634.903V254H627.858V195.818H634.676L666.494 241.614H667.062V195.818H673.994ZM740.911 214H733.865C733.448 211.973 732.719 210.193 731.678 208.659C730.655 207.125 729.405 205.837 727.928 204.795C726.469 203.735 724.85 202.939 723.07 202.409C721.289 201.879 719.433 201.614 717.501 201.614C713.979 201.614 710.787 202.504 707.928 204.284C705.087 206.064 702.823 208.688 701.138 212.153C699.471 215.619 698.638 219.871 698.638 224.909C698.638 229.947 699.471 234.199 701.138 237.665C702.823 241.131 705.087 243.754 707.928 245.534C710.787 247.314 713.979 248.205 717.501 248.205C719.433 248.205 721.289 247.939 723.07 247.409C724.85 246.879 726.469 246.093 727.928 245.051C729.405 243.991 730.655 242.693 731.678 241.159C732.719 239.606 733.448 237.826 733.865 235.818H740.911C740.38 238.792 739.414 241.453 738.013 243.801C736.611 246.15 734.869 248.148 732.786 249.795C730.702 251.424 728.363 252.665 725.768 253.517C723.193 254.369 720.437 254.795 717.501 254.795C712.539 254.795 708.126 253.583 704.263 251.159C700.399 248.735 697.359 245.288 695.143 240.818C692.928 236.348 691.82 231.045 691.82 224.909C691.82 218.773 692.928 213.47 695.143 209C697.359 204.53 700.399 201.083 704.263 198.659C708.126 196.235 712.539 195.023 717.501 195.023C720.437 195.023 723.193 195.449 725.768 196.301C728.363 197.153 730.702 198.403 732.786 200.051C734.869 201.68 736.611 203.669 738.013 206.017C739.414 208.347 740.38 211.008 740.911 214ZM807.386 224.909C807.386 231.045 806.278 236.348 804.062 240.818C801.847 245.288 798.807 248.735 794.943 251.159C791.08 253.583 786.667 254.795 781.705 254.795C776.742 254.795 772.33 253.583 768.466 251.159C764.602 248.735 761.563 245.288 759.347 240.818C757.131 236.348 756.023 231.045 756.023 224.909C756.023 218.773 757.131 213.47 759.347 209C761.563 204.53 764.602 201.083 768.466 198.659C772.33 196.235 776.742 195.023 781.705 195.023C786.667 195.023 791.08 196.235 794.943 198.659C798.807 201.083 801.847 204.53 804.062 209C806.278 213.47 807.386 218.773 807.386 224.909ZM800.568 224.909C800.568 219.871 799.725 215.619 798.04 212.153C796.373 208.688 794.11 206.064 791.25 204.284C788.409 202.504 785.227 201.614 781.705 201.614C778.182 201.614 774.991 202.504 772.131 204.284C769.29 206.064 767.027 208.688 765.341 212.153C763.674 215.619 762.841 219.871 762.841 224.909C762.841 229.947 763.674 234.199 765.341 237.665C767.027 241.131 769.29 243.754 772.131 245.534C774.991 247.314 778.182 248.205 781.705 248.205C785.227 248.205 788.409 247.314 791.25 245.534C794.11 243.754 796.373 241.131 798.04 237.665C799.725 234.199 800.568 229.947 800.568 224.909ZM825.233 254V195.818H844.892C849.438 195.818 853.169 196.595 856.085 198.148C859.002 199.682 861.161 201.794 862.562 204.483C863.964 207.172 864.665 210.231 864.665 213.659C864.665 217.087 863.964 220.127 862.562 222.778C861.161 225.43 859.011 227.513 856.114 229.028C853.216 230.525 849.513 231.273 845.006 231.273H829.097V224.909H844.778C847.884 224.909 850.384 224.455 852.278 223.545C854.191 222.636 855.574 221.348 856.426 219.682C857.297 217.996 857.733 215.989 857.733 213.659C857.733 211.33 857.297 209.294 856.426 207.551C855.555 205.809 854.163 204.464 852.25 203.517C850.337 202.551 847.809 202.068 844.665 202.068H832.278V254H825.233ZM852.619 227.864L866.938 254H858.756L844.665 227.864H852.619ZM900.359 254H882.405V195.818H901.155C906.799 195.818 911.628 196.983 915.643 199.312C919.659 201.623 922.736 204.947 924.876 209.284C927.017 213.602 928.087 218.773 928.087 224.795C928.087 230.856 927.007 236.074 924.848 240.449C922.689 244.805 919.545 248.157 915.416 250.506C911.287 252.835 906.268 254 900.359 254ZM889.45 247.75H899.905C904.715 247.75 908.702 246.822 911.865 244.966C915.028 243.11 917.386 240.468 918.939 237.04C920.492 233.612 921.268 229.53 921.268 224.795C921.268 220.098 920.501 216.055 918.967 212.665C917.433 209.256 915.142 206.642 912.092 204.824C909.043 202.987 905.246 202.068 900.7 202.068H889.45V247.75ZM600.026 444H571.901L623.108 298.545H655.636L706.915 444H678.79L639.94 328.375H638.804L600.026 444ZM600.949 386.969H677.653V408.134H600.949V386.969ZM738.647 380.08V444H712.937V334.909H737.511V353.446H738.789C741.299 347.338 745.299 342.485 750.792 338.886C756.332 335.288 763.174 333.489 771.317 333.489C778.846 333.489 785.404 335.098 790.991 338.318C796.625 341.538 800.981 346.202 804.059 352.31C807.184 358.418 808.723 365.828 808.675 374.54V444H782.965V378.517C782.965 371.225 781.071 365.52 777.283 361.401C773.543 357.281 768.358 355.222 761.729 355.222C757.231 355.222 753.23 356.216 749.727 358.205C746.27 360.146 743.548 362.963 741.559 366.656C739.618 370.349 738.647 374.824 738.647 380.08ZM848.522 380.08V444H822.812V334.909H847.386V353.446H848.664C851.174 347.338 855.174 342.485 860.667 338.886C866.207 335.288 873.049 333.489 881.192 333.489C888.721 333.489 895.279 335.098 900.866 338.318C906.5 341.538 910.856 346.202 913.934 352.31C917.059 358.418 918.598 365.828 918.55 374.54V444H892.84V378.517C892.84 371.225 890.946 365.52 887.158 361.401C883.418 357.281 878.233 355.222 871.604 355.222C867.106 355.222 863.105 356.216 859.602 358.205C856.145 360.146 853.423 362.963 851.434 366.656C849.493 370.349 848.522 374.824 848.522 380.08ZM980.272 446.131C969.619 446.131 960.386 443.787 952.573 439.099C944.761 434.412 938.7 427.854 934.391 419.426C930.13 410.998 927.999 401.15 927.999 389.881C927.999 378.612 930.13 368.74 934.391 360.264C938.7 351.789 944.761 345.207 952.573 340.52C960.386 335.832 969.619 333.489 980.272 333.489C990.925 333.489 1000.16 335.832 1007.97 340.52C1015.78 345.207 1021.82 351.789 1026.08 360.264C1030.39 368.74 1032.54 378.612 1032.54 389.881C1032.54 401.15 1030.39 410.998 1026.08 419.426C1021.82 427.854 1015.78 434.412 1007.97 439.099C1000.16 443.787 990.925 446.131 980.272 446.131ZM980.414 425.534C986.191 425.534 991.02 423.948 994.903 420.776C998.785 417.556 1001.67 413.247 1003.57 407.849C1005.51 402.452 1006.48 396.438 1006.48 389.81C1006.48 383.134 1005.51 377.097 1003.57 371.699C1001.67 366.254 998.785 361.921 994.903 358.702C991.02 355.482 986.191 353.872 980.414 353.872C974.496 353.872 969.571 355.482 965.641 358.702C961.759 361.921 958.847 366.254 956.906 371.699C955.012 377.097 954.065 383.134 954.065 389.81C954.065 396.438 955.012 402.452 956.906 407.849C958.847 413.247 961.759 417.556 965.641 420.776C969.571 423.948 974.496 425.534 980.414 425.534ZM1096.84 334.909V354.795H1034.13V334.909H1096.84ZM1049.61 308.773H1075.32V411.188C1075.32 414.644 1075.84 417.295 1076.88 419.142C1077.97 420.941 1079.39 422.172 1081.14 422.835C1082.9 423.498 1084.84 423.83 1086.97 423.83C1088.58 423.83 1090.05 423.711 1091.37 423.474C1092.75 423.238 1093.79 423.025 1094.5 422.835L1098.83 442.935C1097.46 443.408 1095.49 443.929 1092.93 444.497C1090.43 445.065 1087.35 445.397 1083.7 445.491C1077.26 445.681 1071.46 444.71 1066.3 442.58C1061.14 440.402 1057.04 437.04 1054.01 432.494C1051.03 427.949 1049.56 422.267 1049.61 415.449V308.773ZM1137.74 446.202C1130.82 446.202 1124.6 444.971 1119.06 442.509C1113.56 439.999 1109.21 436.306 1105.99 431.429C1102.82 426.552 1101.23 420.539 1101.23 413.389C1101.23 407.234 1102.37 402.144 1104.64 398.119C1106.91 394.095 1110.01 390.875 1113.94 388.46C1117.87 386.045 1122.3 384.223 1127.22 382.991C1132.2 381.713 1137.33 380.79 1142.64 380.222C1149.03 379.559 1154.21 378.967 1158.19 378.446C1162.17 377.878 1165.06 377.026 1166.85 375.889C1168.7 374.705 1169.62 372.883 1169.62 370.42V369.994C1169.62 364.644 1168.04 360.501 1164.87 357.565C1161.69 354.63 1157.12 353.162 1151.16 353.162C1144.86 353.162 1139.87 354.535 1136.17 357.281C1132.53 360.027 1130.06 363.271 1128.79 367.011L1104.78 363.602C1106.67 356.973 1109.8 351.434 1114.16 346.983C1118.51 342.485 1123.84 339.123 1130.14 336.898C1136.43 334.625 1143.39 333.489 1151.02 333.489C1156.27 333.489 1161.5 334.104 1166.71 335.335C1171.92 336.566 1176.68 338.602 1180.99 341.443C1185.3 344.237 1188.75 348.048 1191.36 352.878C1194.01 357.707 1195.33 363.744 1195.33 370.989V444H1170.62V429.014H1169.77C1168.2 432.045 1166 434.885 1163.16 437.537C1160.37 440.141 1156.84 442.248 1152.58 443.858C1148.36 445.42 1143.42 446.202 1137.74 446.202ZM1144.41 427.31C1149.57 427.31 1154.05 426.292 1157.83 424.256C1161.62 422.172 1164.53 419.426 1166.57 416.017C1168.65 412.608 1169.7 408.891 1169.7 404.866V392.011C1168.89 392.674 1167.52 393.29 1165.58 393.858C1163.68 394.426 1161.55 394.923 1159.18 395.349C1156.82 395.776 1154.47 396.154 1152.15 396.486C1149.83 396.817 1147.82 397.101 1146.12 397.338C1142.28 397.859 1138.85 398.711 1135.82 399.895C1132.79 401.079 1130.4 402.736 1128.64 404.866C1126.89 406.95 1126.02 409.649 1126.02 412.963C1126.02 417.698 1127.74 421.273 1131.2 423.688C1134.66 426.102 1139.06 427.31 1144.41 427.31ZM1263.66 334.909V354.795H1200.95V334.909H1263.66ZM1216.43 308.773H1242.14V411.188C1242.14 414.644 1242.66 417.295 1243.7 419.142C1244.79 420.941 1246.21 422.172 1247.97 422.835C1249.72 423.498 1251.66 423.83 1253.79 423.83C1255.4 423.83 1256.87 423.711 1258.19 423.474C1259.57 423.238 1260.61 423.025 1261.32 422.835L1265.65 442.935C1264.28 443.408 1262.31 443.929 1259.75 444.497C1257.25 445.065 1254.17 445.397 1250.52 445.491C1244.08 445.681 1238.28 444.71 1233.12 442.58C1227.96 440.402 1223.86 437.04 1220.83 432.494C1217.85 427.949 1216.38 422.267 1216.43 415.449V308.773ZM1320.29 446.131C1309.35 446.131 1299.9 443.858 1291.95 439.312C1284.04 434.72 1277.96 428.233 1273.7 419.852C1269.43 411.424 1267.3 401.505 1267.3 390.094C1267.3 378.872 1269.43 369.024 1273.7 360.548C1278 352.026 1284.02 345.397 1291.74 340.662C1299.45 335.88 1308.52 333.489 1318.94 333.489C1325.66 333.489 1332.01 334.578 1337.97 336.756C1343.98 338.886 1349.29 342.201 1353.88 346.699C1358.52 351.197 1362.17 356.926 1364.82 363.886C1367.47 370.799 1368.8 379.038 1368.8 388.602V396.486H1279.38V379.156H1344.15C1344.1 374.232 1343.04 369.852 1340.95 366.017C1338.87 362.134 1335.96 359.08 1332.22 356.855C1328.53 354.63 1324.22 353.517 1319.29 353.517C1314.04 353.517 1309.42 354.795 1305.44 357.352C1301.47 359.862 1298.36 363.176 1296.14 367.295C1293.96 371.367 1292.85 375.842 1292.8 380.719V395.847C1292.8 402.191 1293.96 407.636 1296.28 412.182C1298.6 416.68 1301.84 420.136 1306.01 422.551C1310.18 424.919 1315.05 426.102 1320.64 426.102C1324.38 426.102 1327.77 425.581 1330.8 424.54C1333.83 423.451 1336.46 421.865 1338.68 419.781C1340.91 417.698 1342.59 415.117 1343.72 412.04L1367.73 414.739C1366.21 421.083 1363.33 426.623 1359.07 431.358C1354.85 436.045 1349.45 439.691 1342.87 442.295C1336.29 444.852 1328.76 446.131 1320.29 446.131Z" fill="#151515"/>
<g clip-path="url(#clip0_10_485)">
<g filter="url(#filter0_d_10_485)">
<path d="M487.667 159.605H221.333C205.47 159.605 192.611 172.433 192.611 188.258V448.742C192.611 464.567 205.47 477.395 221.333 477.395H487.667C503.529 477.395 516.389 464.567 516.389 448.742V188.258C516.389 172.433 503.529 159.605 487.667 159.605Z" fill="#F8F8FF"/>
</g>
<path d="M275.092 260.475H274.309V261.256V407.663V408.445H275.092H421.852H422.635V407.663V261.256V260.475H421.852H275.092ZM279.342 265.496H417.602V403.423H279.342V265.496Z" fill="#5658DD" stroke="#5658DD" stroke-width="1.4" stroke-linecap="round"/>
<path d="M464.34 272.606C464.716 300.959 441.981 324.247 413.56 324.622C385.14 324.996 361.795 302.316 361.42 273.964C361.044 245.611 383.779 222.323 412.2 221.949C440.621 221.574 463.964 244.254 464.34 272.606Z" fill="#F8F8FF"/>
<path d="M412.166 219.436C408.156 219.489 404.251 219.977 400.497 220.856C399.143 221.173 398.303 222.525 398.621 223.876C398.938 225.226 400.294 226.064 401.648 225.747C405.048 224.951 408.59 224.508 412.233 224.46C415.875 224.412 419.427 224.762 422.848 225.468C424.21 225.749 425.542 224.875 425.824 223.517C426.106 222.158 425.23 220.829 423.868 220.548C420.092 219.768 416.176 219.383 412.166 219.436ZM386.036 232.446C387.198 231.684 387.521 230.127 386.757 228.967C385.994 227.808 384.432 227.485 383.27 228.248C376.689 232.562 371.116 238.27 366.967 244.947C366.234 246.126 366.598 247.675 367.781 248.406C368.962 249.137 370.514 248.774 371.248 247.594C375.011 241.538 380.067 236.359 386.036 232.446ZM441.285 227.482C440.103 226.751 438.551 227.114 437.818 228.294C437.085 229.473 437.45 231.022 438.632 231.753C444.702 235.507 449.894 240.551 453.816 246.505C454.58 247.665 456.142 247.987 457.304 247.225C458.466 246.463 458.789 244.906 458.025 243.746C453.7 237.181 447.978 231.621 441.285 227.482ZM364.948 263.34C365.229 261.982 364.354 260.652 362.992 260.371C361.63 260.09 360.298 260.964 360.016 262.322C359.234 266.089 358.849 269.996 358.901 273.996C358.955 277.997 359.444 281.892 360.325 285.637C360.642 286.988 361.998 287.826 363.352 287.509C364.705 287.192 365.545 285.84 365.227 284.49C364.429 281.097 363.985 277.564 363.937 273.93C363.889 270.296 364.239 266.753 364.948 263.34ZM465.435 260.932C465.117 259.581 463.761 258.743 462.408 259.06C461.054 259.377 460.213 260.729 460.531 262.08C461.329 265.473 461.774 269.005 461.822 272.639C461.87 276.273 461.519 279.817 460.811 283.229C460.53 284.588 461.405 285.917 462.767 286.198C464.129 286.479 465.461 285.606 465.743 284.247C466.524 280.48 466.911 276.573 466.858 272.573C466.804 268.573 466.315 264.677 465.435 260.932ZM371.943 300.064C371.179 298.904 369.618 298.582 368.455 299.344C367.293 300.106 366.97 301.663 367.734 302.823C372.059 309.388 377.781 314.948 384.474 319.087C385.656 319.818 387.208 319.454 387.941 318.275C388.674 317.096 388.309 315.548 387.127 314.817C381.057 311.063 375.865 306.018 371.943 300.064ZM458.792 301.622C459.525 300.443 459.161 298.894 457.979 298.163C456.797 297.433 455.244 297.796 454.512 298.975C450.748 305.031 445.692 310.21 439.723 314.123C438.561 314.885 438.238 316.443 439.002 317.602C439.765 318.762 441.327 319.083 442.489 318.322C449.07 314.008 454.643 308.299 458.792 301.622ZM402.911 321.102C401.549 320.82 400.217 321.694 399.935 323.052C399.653 324.411 400.529 325.74 401.891 326.021C405.667 326.801 409.583 327.186 413.593 327.133C417.603 327.08 421.508 326.592 425.262 325.713C426.616 325.396 427.456 324.044 427.138 322.694C426.82 321.343 425.465 320.505 424.111 320.822C420.71 321.618 417.169 322.061 413.526 322.109C409.884 322.158 406.332 321.808 402.911 321.102Z" fill="#5658DD"/>
<path d="M423.868 220.548C425.23 220.829 426.106 222.158 425.824 223.517C425.542 224.875 424.21 225.749 422.848 225.468C419.427 224.762 415.875 224.412 412.233 224.46C408.59 224.508 405.048 224.951 401.648 225.747C400.294 226.064 398.938 225.226 398.621 223.876C398.303 222.525 399.143 221.173 400.497 220.856C404.251 219.977 408.156 219.489 412.166 219.436C416.176 219.383 420.092 219.768 423.868 220.548ZM423.868 220.548L423.71 221.313M386.036 232.446C387.198 231.684 387.521 230.127 386.757 228.967C385.994 227.808 384.432 227.485 383.27 228.248C376.689 232.562 371.116 238.27 366.967 244.947C366.234 246.126 366.598 247.675 367.781 248.406C368.962 249.137 370.514 248.774 371.248 247.594C375.011 241.538 380.067 236.359 386.036 232.446ZM441.285 227.482C440.103 226.751 438.551 227.114 437.818 228.294C437.085 229.473 437.45 231.022 438.632 231.753C444.702 235.507 449.894 240.551 453.816 246.505C454.58 247.665 456.142 247.987 457.304 247.225C458.466 246.463 458.789 244.906 458.025 243.746C453.7 237.181 447.978 231.621 441.285 227.482ZM364.948 263.34C365.229 261.982 364.354 260.652 362.992 260.371C361.63 260.09 360.298 260.964 360.016 262.322C359.234 266.089 358.849 269.996 358.901 273.996C358.955 277.997 359.444 281.892 360.325 285.637C360.642 286.988 361.998 287.826 363.352 287.509C364.705 287.192 365.545 285.84 365.227 284.49C364.429 281.097 363.985 277.564 363.937 273.93C363.889 270.296 364.239 266.753 364.948 263.34ZM465.435 260.932C465.117 259.581 463.761 258.743 462.408 259.06C461.054 259.377 460.213 260.729 460.531 262.08C461.329 265.473 461.774 269.005 461.822 272.639C461.87 276.273 461.519 279.817 460.811 283.229C460.53 284.588 461.405 285.917 462.767 286.198C464.129 286.479 465.461 285.606 465.743 284.247C466.524 280.48 466.911 276.573 466.858 272.573C466.804 268.573 466.315 264.677 465.435 260.932ZM371.943 300.064C371.179 298.904 369.618 298.582 368.455 299.344C367.293 300.106 366.97 301.663 367.734 302.823C372.059 309.388 377.781 314.948 384.474 319.087C385.656 319.818 387.208 319.454 387.941 318.275C388.674 317.096 388.309 315.548 387.127 314.817C381.057 311.063 375.865 306.018 371.943 300.064ZM458.792 301.622C459.525 300.443 459.161 298.894 457.979 298.163C456.797 297.433 455.244 297.796 454.512 298.975C450.748 305.031 445.692 310.21 439.723 314.123C438.561 314.885 438.238 316.443 439.002 317.602C439.765 318.762 441.327 319.083 442.489 318.322C449.07 314.008 454.643 308.299 458.792 301.622ZM402.911 321.102C401.549 320.82 400.217 321.694 399.935 323.052C399.653 324.411 400.529 325.74 401.891 326.021C405.667 326.801 409.583 327.186 413.593 327.133C417.603 327.08 421.508 326.592 425.262 325.713C426.616 325.396 427.456 324.044 427.138 322.694C426.82 321.343 425.465 320.505 424.111 320.822C420.71 321.618 417.169 322.061 413.526 322.109C409.884 322.158 406.332 321.808 402.911 321.102Z" stroke="#5658DD" stroke-width="1.5"/>
<path d="M284.461 261.257C284.461 266.419 280.266 270.604 275.091 270.604C269.917 270.604 265.722 266.419 265.722 261.257C265.722 256.095 269.917 251.91 275.091 251.91C280.266 251.91 284.461 256.095 284.461 261.257Z" fill="white" stroke="#5658DD" stroke-width="6"/>
<path d="M430.683 403.387C430.683 408.549 426.488 412.734 421.314 412.734C416.139 412.734 411.944 408.549 411.944 403.387C411.944 398.225 416.139 394.04 421.314 394.04C426.488 394.04 430.683 398.225 430.683 403.387Z" fill="white" stroke="#5658DD" stroke-width="6"/>
<path d="M284.461 403.387C284.461 408.549 280.266 412.734 275.091 412.734C269.917 412.734 265.722 408.549 265.722 403.387C265.722 398.225 269.917 394.04 275.091 394.04C280.266 394.04 284.461 398.225 284.461 403.387Z" fill="white" stroke="#5658DD" stroke-width="6"/>
</g>
<defs>
<filter id="filter0_d_10_485" x="182.611" y="153.605" width="343.778" height="337.79" filterUnits="userSpaceOnUse" color-interpolation-filters="sRGB">
<feFlood flood-opacity="0" result="BackgroundImageFix"/>
<feColorMatrix in="SourceAlpha" type="matrix" values="0 0 0 0 0 0 0 0 0 0 0 0 0 0 0 0 0 0 127 0" result="hardAlpha"/>
<feOffset dy="4"/>
<feGaussianBlur stdDeviation="5"/>
<feComposite in2="hardAlpha" operator="out"/>
<feColorMatrix type="matrix" values="0 0 0 0 0.3875 0 0 0 0 0.384271 0 0 0 0 0.384271 0 0 0 0.2 0"/>
<feBlend mode="normal" in2="BackgroundImageFix" result="effect1_dropShadow_10_485"/>
<feBlend mode="normal" in="SourceGraphic" in2="effect1_dropShadow_10_485" result="shape"/>
</filter>
<clipPath id="clip0_10_485">
<rect width="329" height="323" fill="white" transform="translate(190 157)"/>
</clipPath>
</defs>
</svg>
